<mxfile host="app.diagrams.net" modified="2021-03-20T00:12:10.526Z" agent="5.0 (Macintosh; Intel Mac OS X 11_2_2) AppleWebKit/537.36 (KHTML, like Gecko) Chrome/89.0.4389.82 Safari/537.36" etag="gFaNRx0qrSizCpbY6qrX" version="14.4.9" type="github">
  <diagram id="C5RBs43oDa-KdzZeNtuy" name="Page-1">
    <mxGraphModel dx="946" dy="557" grid="1" gridSize="10" guides="1" tooltips="1" connect="1" arrows="1" fold="1" page="1" pageScale="1" pageWidth="827" pageHeight="1169" math="0" shadow="0">
      <root>
        <mxCell id="WIyWlLk6GJQsqaUBKTNV-0" />
        <mxCell id="WIyWlLk6GJQsqaUBKTNV-1" parent="WIyWlLk6GJQsqaUBKTNV-0" />
        <mxCell id="buYOlJ1dGfHYI7YPSNrh-4" value="&lt;font style=&quot;font-size: 14px&quot;&gt;id&lt;/font&gt;" style="whiteSpace=wrap;html=1;fillColor=#ffe6cc;strokeColor=#d79b00;" vertex="1" parent="WIyWlLk6GJQsqaUBKTNV-1">
          <mxGeometry x="530" y="340" width="160" height="30" as="geometry" />
        </mxCell>
        <mxCell id="buYOlJ1dGfHYI7YPSNrh-5" value="&lt;font style=&quot;font-size: 14px&quot;&gt;email&lt;/font&gt;" style="whiteSpace=wrap;html=1;fillColor=#ffe6cc;strokeColor=#d79b00;" vertex="1" parent="WIyWlLk6GJQsqaUBKTNV-1">
          <mxGeometry x="530" y="370" width="160" height="30" as="geometry" />
        </mxCell>
        <mxCell id="buYOlJ1dGfHYI7YPSNrh-6" value="&lt;span style=&quot;font-size: 14px&quot;&gt;encrypted_password&lt;/span&gt;" style="whiteSpace=wrap;html=1;fillColor=#ffe6cc;strokeColor=#d79b00;" vertex="1" parent="WIyWlLk6GJQsqaUBKTNV-1">
          <mxGeometry x="530" y="400" width="160" height="30" as="geometry" />
        </mxCell>
        <mxCell id="buYOlJ1dGfHYI7YPSNrh-17" value="&lt;span style=&quot;font-size: 14px&quot;&gt;reset_password_token&lt;/span&gt;" style="whiteSpace=wrap;html=1;fillColor=#ffe6cc;strokeColor=#d79b00;" vertex="1" parent="WIyWlLk6GJQsqaUBKTNV-1">
          <mxGeometry x="530" y="430" width="160" height="30" as="geometry" />
        </mxCell>
        <mxCell id="buYOlJ1dGfHYI7YPSNrh-16" value="&lt;span style=&quot;font-size: 14px&quot;&gt;reset_password_sent_at&lt;/span&gt;" style="whiteSpace=wrap;html=1;fillColor=#ffe6cc;strokeColor=#d79b00;" vertex="1" parent="WIyWlLk6GJQsqaUBKTNV-1">
          <mxGeometry x="530" y="460" width="160" height="30" as="geometry" />
        </mxCell>
        <mxCell id="buYOlJ1dGfHYI7YPSNrh-15" value="&lt;span style=&quot;font-size: 14px&quot;&gt;remember_created_at&lt;/span&gt;" style="whiteSpace=wrap;html=1;fillColor=#ffe6cc;strokeColor=#d79b00;" vertex="1" parent="WIyWlLk6GJQsqaUBKTNV-1">
          <mxGeometry x="530" y="490" width="160" height="30" as="geometry" />
        </mxCell>
        <mxCell id="buYOlJ1dGfHYI7YPSNrh-14" value="&lt;span style=&quot;font-size: 14px&quot;&gt;created_at&lt;/span&gt;" style="whiteSpace=wrap;html=1;fillColor=#ffe6cc;strokeColor=#d79b00;" vertex="1" parent="WIyWlLk6GJQsqaUBKTNV-1">
          <mxGeometry x="530" y="520" width="160" height="30" as="geometry" />
        </mxCell>
        <mxCell id="buYOlJ1dGfHYI7YPSNrh-13" value="&lt;span style=&quot;font-size: 14px&quot;&gt;updated_at&lt;/span&gt;" style="whiteSpace=wrap;html=1;fillColor=#ffe6cc;strokeColor=#d79b00;" vertex="1" parent="WIyWlLk6GJQsqaUBKTNV-1">
          <mxGeometry x="530" y="550" width="160" height="30" as="geometry" />
        </mxCell>
        <mxCell id="buYOlJ1dGfHYI7YPSNrh-12" value="&lt;span style=&quot;font-size: 14px&quot;&gt;name&lt;/span&gt;" style="whiteSpace=wrap;html=1;fillColor=#ffe6cc;strokeColor=#d79b00;" vertex="1" parent="WIyWlLk6GJQsqaUBKTNV-1">
          <mxGeometry x="530" y="580" width="160" height="30" as="geometry" />
        </mxCell>
        <mxCell id="buYOlJ1dGfHYI7YPSNrh-11" value="&lt;span style=&quot;font-size: 14px&quot;&gt;postal_code&lt;/span&gt;" style="whiteSpace=wrap;html=1;fillColor=#ffe6cc;strokeColor=#d79b00;" vertex="1" parent="WIyWlLk6GJQsqaUBKTNV-1">
          <mxGeometry x="530" y="610" width="160" height="30" as="geometry" />
        </mxCell>
        <mxCell id="buYOlJ1dGfHYI7YPSNrh-10" value="&lt;span style=&quot;font-size: 14px&quot;&gt;address&lt;/span&gt;" style="whiteSpace=wrap;html=1;fillColor=#ffe6cc;strokeColor=#d79b00;" vertex="1" parent="WIyWlLk6GJQsqaUBKTNV-1">
          <mxGeometry x="530" y="640" width="160" height="30" as="geometry" />
        </mxCell>
        <mxCell id="buYOlJ1dGfHYI7YPSNrh-9" value="&lt;span style=&quot;font-size: 14px&quot;&gt;self_introduction&lt;/span&gt;" style="whiteSpace=wrap;html=1;fillColor=#ffe6cc;strokeColor=#d79b00;" vertex="1" parent="WIyWlLk6GJQsqaUBKTNV-1">
          <mxGeometry x="530" y="670" width="160" height="30" as="geometry" />
        </mxCell>
        <mxCell id="buYOlJ1dGfHYI7YPSNrh-8" value="&lt;span style=&quot;font-size: 14px&quot;&gt;provider&lt;/span&gt;" style="whiteSpace=wrap;html=1;fillColor=#ffe6cc;strokeColor=#d79b00;" vertex="1" parent="WIyWlLk6GJQsqaUBKTNV-1">
          <mxGeometry x="530" y="700" width="160" height="30" as="geometry" />
        </mxCell>
        <mxCell id="buYOlJ1dGfHYI7YPSNrh-7" value="&lt;font style=&quot;font-size: 14px&quot;&gt;uid&lt;/font&gt;" style="whiteSpace=wrap;html=1;fillColor=#ffe6cc;strokeColor=#d79b00;" vertex="1" parent="WIyWlLk6GJQsqaUBKTNV-1">
          <mxGeometry x="530" y="730" width="160" height="26" as="geometry" />
        </mxCell>
        <mxCell id="buYOlJ1dGfHYI7YPSNrh-28" value="&lt;span style=&quot;font-size: 14px&quot;&gt;string&lt;/span&gt;" style="whiteSpace=wrap;html=1;" vertex="1" parent="WIyWlLk6GJQsqaUBKTNV-1">
          <mxGeometry x="690" y="340" width="160" height="30" as="geometry" />
        </mxCell>
        <mxCell id="buYOlJ1dGfHYI7YPSNrh-30" value="&lt;span style=&quot;font-size: 14px&quot;&gt;string&lt;/span&gt;" style="whiteSpace=wrap;html=1;" vertex="1" parent="WIyWlLk6GJQsqaUBKTNV-1">
          <mxGeometry x="690" y="370" width="160" height="30" as="geometry" />
        </mxCell>
        <mxCell id="buYOlJ1dGfHYI7YPSNrh-31" value="&lt;span style=&quot;font-size: 14px&quot;&gt;string&lt;/span&gt;" style="whiteSpace=wrap;html=1;" vertex="1" parent="WIyWlLk6GJQsqaUBKTNV-1">
          <mxGeometry x="690" y="400" width="160" height="30" as="geometry" />
        </mxCell>
        <mxCell id="buYOlJ1dGfHYI7YPSNrh-32" value="&lt;span style=&quot;font-size: 14px&quot;&gt;string&lt;/span&gt;" style="whiteSpace=wrap;html=1;" vertex="1" parent="WIyWlLk6GJQsqaUBKTNV-1">
          <mxGeometry x="690" y="430" width="160" height="30" as="geometry" />
        </mxCell>
        <mxCell id="buYOlJ1dGfHYI7YPSNrh-33" value="&lt;span style=&quot;font-size: 14px&quot;&gt;string&lt;/span&gt;" style="whiteSpace=wrap;html=1;" vertex="1" parent="WIyWlLk6GJQsqaUBKTNV-1">
          <mxGeometry x="690" y="460" width="160" height="30" as="geometry" />
        </mxCell>
        <mxCell id="buYOlJ1dGfHYI7YPSNrh-34" value="&lt;span style=&quot;font-size: 14px&quot;&gt;string&lt;/span&gt;" style="whiteSpace=wrap;html=1;" vertex="1" parent="WIyWlLk6GJQsqaUBKTNV-1">
          <mxGeometry x="690" y="490" width="160" height="30" as="geometry" />
        </mxCell>
        <mxCell id="buYOlJ1dGfHYI7YPSNrh-35" value="&lt;span style=&quot;font-size: 14px&quot;&gt;string&lt;/span&gt;" style="whiteSpace=wrap;html=1;" vertex="1" parent="WIyWlLk6GJQsqaUBKTNV-1">
          <mxGeometry x="690" y="520" width="160" height="30" as="geometry" />
        </mxCell>
        <mxCell id="buYOlJ1dGfHYI7YPSNrh-36" value="&lt;span style=&quot;font-size: 14px&quot;&gt;string&lt;/span&gt;" style="whiteSpace=wrap;html=1;" vertex="1" parent="WIyWlLk6GJQsqaUBKTNV-1">
          <mxGeometry x="690" y="550" width="160" height="30" as="geometry" />
        </mxCell>
        <mxCell id="buYOlJ1dGfHYI7YPSNrh-37" value="&lt;span style=&quot;font-size: 14px&quot;&gt;string&lt;/span&gt;" style="whiteSpace=wrap;html=1;" vertex="1" parent="WIyWlLk6GJQsqaUBKTNV-1">
          <mxGeometry x="690" y="580" width="160" height="30" as="geometry" />
        </mxCell>
        <mxCell id="buYOlJ1dGfHYI7YPSNrh-38" value="&lt;span style=&quot;font-size: 14px&quot;&gt;string&lt;/span&gt;" style="whiteSpace=wrap;html=1;" vertex="1" parent="WIyWlLk6GJQsqaUBKTNV-1">
          <mxGeometry x="690" y="610" width="160" height="30" as="geometry" />
        </mxCell>
        <mxCell id="buYOlJ1dGfHYI7YPSNrh-39" value="&lt;span style=&quot;font-size: 14px&quot;&gt;string&lt;/span&gt;" style="whiteSpace=wrap;html=1;" vertex="1" parent="WIyWlLk6GJQsqaUBKTNV-1">
          <mxGeometry x="690" y="640" width="160" height="30" as="geometry" />
        </mxCell>
        <mxCell id="buYOlJ1dGfHYI7YPSNrh-40" value="&lt;span style=&quot;font-size: 14px&quot;&gt;string&lt;/span&gt;" style="whiteSpace=wrap;html=1;" vertex="1" parent="WIyWlLk6GJQsqaUBKTNV-1">
          <mxGeometry x="690" y="670" width="160" height="30" as="geometry" />
        </mxCell>
        <mxCell id="buYOlJ1dGfHYI7YPSNrh-41" value="&lt;span style=&quot;font-size: 14px&quot;&gt;string&lt;/span&gt;" style="whiteSpace=wrap;html=1;" vertex="1" parent="WIyWlLk6GJQsqaUBKTNV-1">
          <mxGeometry x="690" y="700" width="160" height="30" as="geometry" />
        </mxCell>
        <mxCell id="buYOlJ1dGfHYI7YPSNrh-42" value="&lt;span style=&quot;font-size: 14px&quot;&gt;string&lt;/span&gt;" style="whiteSpace=wrap;html=1;" vertex="1" parent="WIyWlLk6GJQsqaUBKTNV-1">
          <mxGeometry x="690" y="730" width="160" height="20" as="geometry" />
        </mxCell>
        <mxCell id="buYOlJ1dGfHYI7YPSNrh-45" value="&lt;font style=&quot;font-size: 15px&quot;&gt;User&lt;/font&gt;" style="whiteSpace=wrap;html=1;fillColor=#dae8fc;strokeColor=#6c8ebf;" vertex="1" parent="WIyWlLk6GJQsqaUBKTNV-1">
          <mxGeometry x="530" y="310" width="320" height="30" as="geometry" />
        </mxCell>
        <mxCell id="buYOlJ1dGfHYI7YPSNrh-46" value="&lt;font style=&quot;font-size: 15px&quot;&gt;Users&lt;/font&gt;" style="whiteSpace=wrap;html=1;fillColor=#f8cecc;strokeColor=#b85450;" vertex="1" parent="WIyWlLk6GJQsqaUBKTNV-1">
          <mxGeometry x="530" y="280" width="320" height="30" as="geometry" />
        </mxCell>
        <mxCell id="buYOlJ1dGfHYI7YPSNrh-19" value="&lt;font style=&quot;font-size: 14px&quot;&gt;id&lt;/font&gt;" style="whiteSpace=wrap;html=1;fillColor=#ffe6cc;strokeColor=#d79b00;" vertex="1" parent="WIyWlLk6GJQsqaUBKTNV-1">
          <mxGeometry x="60" y="710" width="160" height="30" as="geometry" />
        </mxCell>
        <mxCell id="buYOlJ1dGfHYI7YPSNrh-20" value="&lt;span style=&quot;font-size: 14px&quot;&gt;title&lt;/span&gt;" style="whiteSpace=wrap;html=1;fillColor=#ffe6cc;strokeColor=#d79b00;" vertex="1" parent="WIyWlLk6GJQsqaUBKTNV-1">
          <mxGeometry x="60" y="740" width="160" height="30" as="geometry" />
        </mxCell>
        <mxCell id="buYOlJ1dGfHYI7YPSNrh-25" value="&lt;span style=&quot;font-size: 14px&quot;&gt;memo&lt;/span&gt;" style="whiteSpace=wrap;html=1;fillColor=#ffe6cc;strokeColor=#d79b00;" vertex="1" parent="WIyWlLk6GJQsqaUBKTNV-1">
          <mxGeometry x="60" y="770" width="160" height="30" as="geometry" />
        </mxCell>
        <mxCell id="buYOlJ1dGfHYI7YPSNrh-24" value="&lt;span style=&quot;font-size: 14px&quot;&gt;created_at&lt;/span&gt;" style="whiteSpace=wrap;html=1;fillColor=#ffe6cc;strokeColor=#d79b00;" vertex="1" parent="WIyWlLk6GJQsqaUBKTNV-1">
          <mxGeometry x="60" y="800" width="160" height="30" as="geometry" />
        </mxCell>
        <mxCell id="buYOlJ1dGfHYI7YPSNrh-23" value="&lt;span style=&quot;font-size: 14px&quot;&gt;updated_at&lt;/span&gt;" style="whiteSpace=wrap;html=1;fillColor=#ffe6cc;strokeColor=#d79b00;" vertex="1" parent="WIyWlLk6GJQsqaUBKTNV-1">
          <mxGeometry x="60" y="830" width="160" height="30" as="geometry" />
        </mxCell>
        <mxCell id="buYOlJ1dGfHYI7YPSNrh-22" value="&lt;span style=&quot;font-size: 14px&quot;&gt;author&lt;/span&gt;" style="whiteSpace=wrap;html=1;fillColor=#ffe6cc;strokeColor=#d79b00;" vertex="1" parent="WIyWlLk6GJQsqaUBKTNV-1">
          <mxGeometry x="60" y="860" width="160" height="30" as="geometry" />
        </mxCell>
        <mxCell id="buYOlJ1dGfHYI7YPSNrh-21" value="&lt;span style=&quot;font-size: 14px&quot;&gt;picture&lt;/span&gt;" style="whiteSpace=wrap;html=1;fillColor=#ffe6cc;strokeColor=#d79b00;" vertex="1" parent="WIyWlLk6GJQsqaUBKTNV-1">
          <mxGeometry x="60" y="890" width="160" height="30" as="geometry" />
        </mxCell>
        <mxCell id="buYOlJ1dGfHYI7YPSNrh-47" value="&lt;span style=&quot;font-size: 14px&quot;&gt;string&lt;/span&gt;" style="whiteSpace=wrap;html=1;" vertex="1" parent="WIyWlLk6GJQsqaUBKTNV-1">
          <mxGeometry x="220" y="710" width="160" height="30" as="geometry" />
        </mxCell>
        <mxCell id="buYOlJ1dGfHYI7YPSNrh-48" value="&lt;span style=&quot;font-size: 14px&quot;&gt;string&lt;/span&gt;" style="whiteSpace=wrap;html=1;" vertex="1" parent="WIyWlLk6GJQsqaUBKTNV-1">
          <mxGeometry x="220" y="740" width="160" height="30" as="geometry" />
        </mxCell>
        <mxCell id="buYOlJ1dGfHYI7YPSNrh-49" value="&lt;span style=&quot;font-size: 14px&quot;&gt;string&lt;/span&gt;" style="whiteSpace=wrap;html=1;" vertex="1" parent="WIyWlLk6GJQsqaUBKTNV-1">
          <mxGeometry x="220" y="770" width="160" height="30" as="geometry" />
        </mxCell>
        <mxCell id="buYOlJ1dGfHYI7YPSNrh-50" value="&lt;span style=&quot;font-size: 14px&quot;&gt;string&lt;/span&gt;" style="whiteSpace=wrap;html=1;" vertex="1" parent="WIyWlLk6GJQsqaUBKTNV-1">
          <mxGeometry x="220" y="800" width="160" height="30" as="geometry" />
        </mxCell>
        <mxCell id="buYOlJ1dGfHYI7YPSNrh-51" value="&lt;span style=&quot;font-size: 14px&quot;&gt;string&lt;/span&gt;" style="whiteSpace=wrap;html=1;" vertex="1" parent="WIyWlLk6GJQsqaUBKTNV-1">
          <mxGeometry x="220" y="830" width="160" height="30" as="geometry" />
        </mxCell>
        <mxCell id="buYOlJ1dGfHYI7YPSNrh-52" value="&lt;span style=&quot;font-size: 14px&quot;&gt;string&lt;/span&gt;" style="whiteSpace=wrap;html=1;" vertex="1" parent="WIyWlLk6GJQsqaUBKTNV-1">
          <mxGeometry x="220" y="860" width="160" height="30" as="geometry" />
        </mxCell>
        <mxCell id="buYOlJ1dGfHYI7YPSNrh-53" value="&lt;span style=&quot;font-size: 14px&quot;&gt;string&lt;/span&gt;" style="whiteSpace=wrap;html=1;" vertex="1" parent="WIyWlLk6GJQsqaUBKTNV-1">
          <mxGeometry x="220" y="890" width="160" height="30" as="geometry" />
        </mxCell>
        <mxCell id="buYOlJ1dGfHYI7YPSNrh-54" value="&lt;span style=&quot;font-size: 15px&quot;&gt;Book&lt;/span&gt;" style="whiteSpace=wrap;html=1;fillColor=#dae8fc;strokeColor=#6c8ebf;" vertex="1" parent="WIyWlLk6GJQsqaUBKTNV-1">
          <mxGeometry x="60" y="680" width="320" height="30" as="geometry" />
        </mxCell>
        <mxCell id="buYOlJ1dGfHYI7YPSNrh-55" value="&lt;span style=&quot;font-size: 15px&quot;&gt;Books&lt;/span&gt;" style="whiteSpace=wrap;html=1;fillColor=#f8cecc;strokeColor=#b85450;" vertex="1" parent="WIyWlLk6GJQsqaUBKTNV-1">
          <mxGeometry x="60" y="650" width="320" height="30" as="geometry" />
        </mxCell>
        <mxCell id="buYOlJ1dGfHYI7YPSNrh-72" value="&lt;span style=&quot;font-size: 15px&quot;&gt;Report&lt;/span&gt;" style="whiteSpace=wrap;html=1;fillColor=#dae8fc;strokeColor=#6c8ebf;" vertex="1" parent="WIyWlLk6GJQsqaUBKTNV-1">
          <mxGeometry x="40" y="180" width="320" height="30" as="geometry" />
        </mxCell>
        <mxCell id="buYOlJ1dGfHYI7YPSNrh-73" value="&lt;span style=&quot;font-size: 15px&quot;&gt;Reports&lt;/span&gt;" style="whiteSpace=wrap;html=1;fillColor=#f8cecc;strokeColor=#b85450;" vertex="1" parent="WIyWlLk6GJQsqaUBKTNV-1">
          <mxGeometry x="40" y="150" width="320" height="30" as="geometry" />
        </mxCell>
        <mxCell id="buYOlJ1dGfHYI7YPSNrh-74" value="&lt;span style=&quot;font-size: 14px&quot;&gt;title&lt;/span&gt;" style="whiteSpace=wrap;html=1;fillColor=#ffe6cc;strokeColor=#d79b00;" vertex="1" parent="WIyWlLk6GJQsqaUBKTNV-1">
          <mxGeometry x="40" y="210" width="160" height="30" as="geometry" />
        </mxCell>
        <mxCell id="buYOlJ1dGfHYI7YPSNrh-75" value="&lt;span style=&quot;font-size: 14px&quot;&gt;body&lt;/span&gt;" style="whiteSpace=wrap;html=1;fillColor=#ffe6cc;strokeColor=#d79b00;" vertex="1" parent="WIyWlLk6GJQsqaUBKTNV-1">
          <mxGeometry x="40" y="240" width="160" height="30" as="geometry" />
        </mxCell>
        <mxCell id="buYOlJ1dGfHYI7YPSNrh-76" value="&lt;span style=&quot;font-size: 14px&quot;&gt;string&lt;/span&gt;" style="whiteSpace=wrap;html=1;" vertex="1" parent="WIyWlLk6GJQsqaUBKTNV-1">
          <mxGeometry x="200" y="210" width="160" height="30" as="geometry" />
        </mxCell>
        <mxCell id="buYOlJ1dGfHYI7YPSNrh-77" value="&lt;span style=&quot;font-size: 14px&quot;&gt;text&lt;/span&gt;" style="whiteSpace=wrap;html=1;" vertex="1" parent="WIyWlLk6GJQsqaUBKTNV-1">
          <mxGeometry x="200" y="240" width="160" height="30" as="geometry" />
        </mxCell>
        <mxCell id="buYOlJ1dGfHYI7YPSNrh-78" value="&lt;span style=&quot;font-size: 15px&quot;&gt;Comment&lt;/span&gt;" style="whiteSpace=wrap;html=1;fillColor=#dae8fc;strokeColor=#6c8ebf;" vertex="1" parent="WIyWlLk6GJQsqaUBKTNV-1">
          <mxGeometry x="50" y="400" width="320" height="30" as="geometry" />
        </mxCell>
        <mxCell id="buYOlJ1dGfHYI7YPSNrh-79" value="&lt;span style=&quot;font-size: 15px&quot;&gt;Comments&lt;/span&gt;" style="whiteSpace=wrap;html=1;fillColor=#f8cecc;strokeColor=#b85450;" vertex="1" parent="WIyWlLk6GJQsqaUBKTNV-1">
          <mxGeometry x="50" y="370" width="320" height="30" as="geometry" />
        </mxCell>
        <mxCell id="buYOlJ1dGfHYI7YPSNrh-80" value="&lt;span style=&quot;font-size: 14px&quot;&gt;text&lt;/span&gt;" style="whiteSpace=wrap;html=1;fillColor=#ffe6cc;strokeColor=#d79b00;" vertex="1" parent="WIyWlLk6GJQsqaUBKTNV-1">
          <mxGeometry x="50" y="430" width="160" height="30" as="geometry" />
        </mxCell>
        <mxCell id="buYOlJ1dGfHYI7YPSNrh-81" value="references" style="whiteSpace=wrap;html=1;fillColor=#ffe6cc;strokeColor=#d79b00;" vertex="1" parent="WIyWlLk6GJQsqaUBKTNV-1">
          <mxGeometry x="50" y="460" width="160" height="30" as="geometry" />
        </mxCell>
        <mxCell id="buYOlJ1dGfHYI7YPSNrh-82" value="&lt;span style=&quot;font-size: 14px&quot;&gt;text&lt;/span&gt;" style="whiteSpace=wrap;html=1;" vertex="1" parent="WIyWlLk6GJQsqaUBKTNV-1">
          <mxGeometry x="210" y="430" width="160" height="30" as="geometry" />
        </mxCell>
        <mxCell id="buYOlJ1dGfHYI7YPSNrh-83" value="&lt;span style=&quot;font-size: 14px&quot;&gt;commentable&lt;/span&gt;" style="whiteSpace=wrap;html=1;" vertex="1" parent="WIyWlLk6GJQsqaUBKTNV-1">
          <mxGeometry x="210" y="460" width="160" height="30" as="geometry" />
        </mxCell>
      </root>
    </mxGraphModel>
  </diagram>
</mxfile>
